<svg xmlns="http://www.w3.org/2000/svg" width="2030" height="720" viewBox="0 0 2030 720" font-family="Inter, Segoe UI, Helvetica, Arial, sans-serif">
<defs><pattern id="dots" width="22" height="22" patternUnits="userSpaceOnUse"><circle cx="1.5" cy="1.5" r="1.1" fill="#2d333b"/></pattern><marker id="arr" viewBox="0 0 10 10" refX="9" refY="5" markerWidth="7" markerHeight="7" orient="auto-start-reverse"><path d="M0,0 L10,5 L0,10 z" fill="#768390"/></marker><filter id="sh" x="-10%" y="-10%" width="120%" height="140%"><feDropShadow dx="0" dy="2" stdDeviation="3" flood-color="#000" flood-opacity="0.45"/></filter></defs>
<rect width="2030" height="720" fill="#161b22"/>
<rect width="2030" height="720" fill="url(#dots)"/>
<text x="24" y="34" fill="#e6edf3" font-size="19" font-weight="700">Automated Short-Form Video Pipeline</text>
<text x="24" y="55" fill="#8b949e" font-size="12.5">n8n orchestration · LLM scripting with two quality gates · neural TTS with word timings · source-proof video renderer</text>
<rect x="26" y="76" width="1726" height="216" rx="14" fill="#1c2128" stroke="#30363d" stroke-width="1.2"/>
<text x="42" y="100" fill="#adbac7" font-size="13" font-weight="600">① Scout · n8n · daily cron · finds the story of the day</text>
<rect x="26" y="324" width="1976" height="348" rx="14" fill="#1c2128" stroke="#30363d" stroke-width="1.2"/>
<text x="42" y="348" fill="#adbac7" font-size="13" font-weight="600">② Script Generator · n8n · webhook · turns it into script, voice and video</text>
<path d="M230,153 C270,153 258,153 298,153" fill="none" stroke="#768390" stroke-width="1.8" marker-end="url(#arr)"/>
<path d="M480,153 C520,153 508,153 548,153" fill="none" stroke="#768390" stroke-width="1.8" marker-end="url(#arr)"/>
<rect x="496" y="143" width="36" height="19" rx="9.5" fill="#22272e" stroke="#444c56"/>
<text x="514" y="157" fill="#cdd9e5" font-size="11" text-anchor="middle">HTTP</text>
<path d="M730,153 C770,153 758,153 798,153" fill="none" stroke="#768390" stroke-width="1.8" marker-end="url(#arr)"/>
<path d="M980,153 C1020,153 1008,153 1048,153" fill="none" stroke="#768390" stroke-width="1.8" marker-end="url(#arr)"/>
<path d="M1230,153 C1270,153 1258,153 1298,153" fill="none" stroke="#768390" stroke-width="1.8" marker-end="url(#arr)"/>
<rect x="1240" y="143" width="49" height="19" rx="9.5" fill="#22272e" stroke="#444c56"/>
<text x="1264" y="157" fill="#cdd9e5" font-size="11" text-anchor="middle">Top 10</text>
<path d="M1480,153 C1520,153 1508,153 1548,153" fill="none" stroke="#768390" stroke-width="1.8" marker-end="url(#arr)"/>
<rect x="1481" y="143" width="67" height="19" rx="9.5" fill="#22272e" stroke="#444c56"/>
<text x="1514" y="157" fill="#cdd9e5" font-size="11" text-anchor="middle">score ≥ 7</text>
<path d="M1389,186 C1389,226 1389,176 1389,216" fill="none" stroke="#768390" stroke-width="1.8" stroke-dasharray="6 5" marker-end="url(#arr)"/>
<rect x="1411" y="191" width="61" height="19" rx="9.5" fill="#22272e" stroke="#444c56"/>
<text x="1441" y="205" fill="#cdd9e5" font-size="11" text-anchor="middle">none ≥ 7</text>
<path d="M1639,186 L1639,288 Q1639,304 1623,304 L155,304 Q139,304 139,320 L139,372" fill="none" stroke="#768390" stroke-width="1.8" marker-end="url(#arr)"/>
<rect x="840" y="294" width="97" height="19" rx="9.5" fill="#22272e" stroke="#444c56"/>
<text x="889" y="308" fill="#cdd9e5" font-size="11" text-anchor="middle">webhook · JSON</text>
<path d="M230,405 C270,405 258,405 298,405" fill="none" stroke="#768390" stroke-width="1.8" marker-end="url(#arr)"/>
<path d="M480,405 C520,405 508,405 548,405" fill="none" stroke="#768390" stroke-width="1.8" marker-end="url(#arr)"/>
<rect x="490" y="395" width="49" height="19" rx="9.5" fill="#22272e" stroke="#444c56"/>
<text x="514" y="409" fill="#cdd9e5" font-size="11" text-anchor="middle">script</text>
<path d="M730,405 C770,405 758,405 798,405" fill="none" stroke="#768390" stroke-width="1.8" marker-end="url(#arr)"/>
<rect x="752" y="395" width="24" height="19" rx="9.5" fill="#22272e" stroke="#444c56"/>
<text x="764" y="409" fill="#cdd9e5" font-size="11" text-anchor="middle">ok</text>
<path d="M980,405 C1020,405 1008,405 1048,405" fill="none" stroke="#768390" stroke-width="1.8" marker-end="url(#arr)"/>
<rect x="996" y="395" width="36" height="19" rx="9.5" fill="#22272e" stroke="#444c56"/>
<text x="1014" y="409" fill="#cdd9e5" font-size="11" text-anchor="middle">PASS</text>
<path d="M1230,405 C1270,405 1258,405 1298,405" fill="none" stroke="#768390" stroke-width="1.8" marker-end="url(#arr)"/>
<rect x="1243" y="395" width="42" height="19" rx="9.5" fill="#22272e" stroke="#444c56"/>
<text x="1264" y="409" fill="#cdd9e5" font-size="11" text-anchor="middle">audio</text>
<path d="M1480,405 C1520,405 1508,405 1548,405" fill="none" stroke="#768390" stroke-width="1.8" marker-end="url(#arr)"/>
<rect x="1499" y="395" width="30" height="19" rx="9.5" fill="#22272e" stroke="#444c56"/>
<text x="1514" y="409" fill="#cdd9e5" font-size="11" text-anchor="middle">MP4</text>
<path d="M1730,405 C1770,405 1758,405 1798,405" fill="none" stroke="#768390" stroke-width="1.8" stroke-dasharray="6 5" marker-end="url(#arr)"/>
<path d="M639,438 C639,478 639,442 639,482" fill="none" stroke="#768390" stroke-width="1.8" marker-end="url(#arr)"/>
<rect x="570" y="450" width="67" height="19" rx="9.5" fill="#22272e" stroke="#444c56"/>
<text x="603" y="464" fill="#cdd9e5" font-size="11" text-anchor="middle">violation</text>
<path d="M889,438 C889,543 835,515 730,515" fill="none" stroke="#768390" stroke-width="1.8" marker-end="url(#arr)"/>
<rect x="834" y="506" width="30" height="19" rx="9.5" fill="#22272e" stroke="#444c56"/>
<text x="849" y="520" fill="#cdd9e5" font-size="11" text-anchor="middle">FIX</text>
<path d="M548,515 C508,515 508,405 548,405" fill="none" stroke="#768390" stroke-width="1.8" stroke-dasharray="6 5" marker-end="url(#arr)"/>
<path d="M889,438 C889,488 889,538 889,588" fill="none" stroke="#768390" stroke-width="1.8" marker-end="url(#arr)"/>
<rect x="895" y="503" width="49" height="19" rx="9.5" fill="#22272e" stroke="#444c56"/>
<text x="919" y="517" fill="#cdd9e5" font-size="11" text-anchor="middle">REJECT</text>
<path d="M1139,438 C1139,478 1139,442 1139,482" fill="none" stroke="#768390" stroke-width="1.8" stroke-dasharray="6 5" marker-end="url(#arr)"/>
<rect x="1146" y="450" width="42" height="19" rx="9.5" fill="#22272e" stroke="#444c56"/>
<text x="1167" y="464" fill="#cdd9e5" font-size="11" text-anchor="middle">error</text>
<path d="M1230,515 C1301,515 1227,405 1298,405" fill="none" stroke="#768390" stroke-width="1.8" marker-end="url(#arr)"/>
<path d="M1389,482 C1389,442 1389,478 1389,438" fill="none" stroke="#768390" stroke-width="1.8" marker-end="url(#arr)"/>
<path d="M1639,482 C1639,442 1639,478 1639,438" fill="none" stroke="#768390" stroke-width="1.8" marker-end="url(#arr)"/>
<g filter="url(#sh)"><rect x="48" y="120" width="182" height="66" rx="11" fill="#2d333b" stroke="#f0883e" stroke-width="1.8"/></g>
<rect x="49" y="130" width="4" height="46" rx="2" fill="#f0883e"/>
<text x="64" y="145" fill="#e6edf3" font-size="13" font-weight="600">Daily trigger</text>
<text x="64" y="162" fill="#909dab" font-size="11">cron, early morning</text>
<circle cx="48" cy="153.0" r="3.5" fill="#444c56"/>
<circle cx="230" cy="153.0" r="3.5" fill="#444c56"/>
<g filter="url(#sh)"><rect x="298" y="120" width="182" height="66" rx="11" fill="#2d333b" stroke="#58a6ff" stroke-width="1.8"/></g>
<rect x="299" y="130" width="4" height="46" rx="2" fill="#58a6ff"/>
<text x="314" y="145" fill="#e6edf3" font-size="13" font-weight="600">Source registry</text>
<text x="314" y="162" fill="#909dab" font-size="11">20 sources: HN, RSS,</text>
<text x="314" y="176" fill="#909dab" font-size="11">GitHub, vendor blogs</text>
<circle cx="298" cy="153.0" r="3.5" fill="#444c56"/>
<circle cx="480" cy="153.0" r="3.5" fill="#444c56"/>
<g filter="url(#sh)"><rect x="548" y="120" width="182" height="66" rx="11" fill="#2d333b" stroke="#58a6ff" stroke-width="1.8"/></g>
<rect x="549" y="130" width="4" height="46" rx="2" fill="#58a6ff"/>
<text x="564" y="145" fill="#e6edf3" font-size="13" font-weight="600">Fetch + parse</text>
<text x="564" y="162" fill="#909dab" font-size="11">dead source is skipped</text>
<text x="564" y="176" fill="#909dab" font-size="11">injection sanitizer</text>
<circle cx="548" cy="153.0" r="3.5" fill="#444c56"/>
<circle cx="730" cy="153.0" r="3.5" fill="#444c56"/>
<g filter="url(#sh)"><rect x="798" y="120" width="182" height="66" rx="11" fill="#2d333b" stroke="#58a6ff" stroke-width="1.8"/></g>
<rect x="799" y="130" width="4" height="46" rx="2" fill="#58a6ff"/>
<text x="814" y="145" fill="#e6edf3" font-size="13" font-weight="600">Dedupe</text>
<text x="814" y="162" fill="#909dab" font-size="11">remembers 500 links</text>
<text x="814" y="176" fill="#909dab" font-size="11">across runs</text>
<circle cx="798" cy="153.0" r="3.5" fill="#444c56"/>
<circle cx="980" cy="153.0" r="3.5" fill="#444c56"/>
<g filter="url(#sh)"><rect x="1048" y="120" width="182" height="66" rx="11" fill="#2d333b" stroke="#58a6ff" stroke-width="1.8"/></g>
<rect x="1049" y="130" width="4" height="46" rx="2" fill="#58a6ff"/>
<text x="1064" y="145" fill="#e6edf3" font-size="13" font-weight="600">Keyword scoring</text>
<text x="1064" y="162" fill="#909dab" font-size="11">niche +, off-topic −</text>
<text x="1064" y="176" fill="#909dab" font-size="11">max 4 per source</text>
<circle cx="1048" cy="153.0" r="3.5" fill="#444c56"/>
<circle cx="1230" cy="153.0" r="3.5" fill="#444c56"/>
<g filter="url(#sh)"><rect x="1298" y="120" width="182" height="66" rx="11" fill="#2d333b" stroke="#a371f7" stroke-width="1.8"/></g>
<rect x="1299" y="130" width="4" height="46" rx="2" fill="#a371f7"/>
<text x="1314" y="145" fill="#e6edf3" font-size="13" font-weight="600">Gemini scoring</text>
<text x="1314" y="162" fill="#909dab" font-size="11">relevance 1–10</text>
<text x="1314" y="176" fill="#909dab" font-size="11">per article</text>
<circle cx="1298" cy="153.0" r="3.5" fill="#444c56"/>
<circle cx="1480" cy="153.0" r="3.5" fill="#444c56"/>
<g filter="url(#sh)"><rect x="1548" y="120" width="182" height="66" rx="11" fill="#2d333b" stroke="#58a6ff" stroke-width="1.8"/></g>
<rect x="1549" y="130" width="4" height="46" rx="2" fill="#58a6ff"/>
<text x="1564" y="145" fill="#e6edf3" font-size="13" font-weight="600">Full-text fetch</text>
<text x="1564" y="162" fill="#909dab" font-size="11">top story body</text>
<text x="1564" y="176" fill="#909dab" font-size="11">capped, sanitized</text>
<circle cx="1548" cy="153.0" r="3.5" fill="#444c56"/>
<circle cx="1730" cy="153.0" r="3.5" fill="#444c56"/>
<g filter="url(#sh)"><rect x="1298" y="216" width="182" height="66" rx="11" fill="#2d333b" stroke="#e3b341" stroke-width="1.8"/></g>
<rect x="1299" y="226" width="4" height="46" rx="2" fill="#e3b341"/>
<text x="1314" y="241" fill="#e6edf3" font-size="13" font-weight="600">Idle alert</text>
<text x="1314" y="258" fill="#909dab" font-size="11">&quot;no story today&quot;</text>
<circle cx="1298" cy="249.0" r="3.5" fill="#444c56"/>
<circle cx="1480" cy="249.0" r="3.5" fill="#444c56"/>
<g filter="url(#sh)"><rect x="48" y="372" width="182" height="66" rx="11" fill="#2d333b" stroke="#f0883e" stroke-width="1.8"/></g>
<rect x="49" y="382" width="4" height="46" rx="2" fill="#f0883e"/>
<text x="64" y="397" fill="#e6edf3" font-size="13" font-weight="600">Webhook</text>
<text x="64" y="414" fill="#909dab" font-size="11">receives story</text>
<text x="64" y="428" fill="#909dab" font-size="11">+ duplicate check</text>
<circle cx="48" cy="405.0" r="3.5" fill="#444c56"/>
<circle cx="230" cy="405.0" r="3.5" fill="#444c56"/>
<g filter="url(#sh)"><rect x="298" y="372" width="182" height="66" rx="11" fill="#2d333b" stroke="#a371f7" stroke-width="1.8"/></g>
<rect x="299" y="382" width="4" height="46" rx="2" fill="#a371f7"/>
<text x="314" y="397" fill="#e6edf3" font-size="13" font-weight="600">Groq writes</text>
<text x="314" y="414" fill="#909dab" font-size="11">~90-word script</text>
<text x="314" y="428" fill="#909dab" font-size="11">hook · facts · take</text>
<circle cx="298" cy="405.0" r="3.5" fill="#444c56"/>
<circle cx="480" cy="405.0" r="3.5" fill="#444c56"/>
<g filter="url(#sh)"><rect x="548" y="372" width="182" height="66" rx="11" fill="#2d333b" stroke="#58a6ff" stroke-width="1.8"/></g>
<rect x="549" y="382" width="4" height="46" rx="2" fill="#58a6ff"/>
<text x="564" y="397" fill="#e6edf3" font-size="13" font-weight="600">Gate 1: rules</text>
<text x="564" y="414" fill="#909dab" font-size="11">deterministic code</text>
<text x="564" y="428" fill="#909dab" font-size="11">length, hook, take</text>
<circle cx="548" cy="405.0" r="3.5" fill="#444c56"/>
<circle cx="730" cy="405.0" r="3.5" fill="#444c56"/>
<g filter="url(#sh)"><rect x="798" y="372" width="182" height="66" rx="11" fill="#2d333b" stroke="#a371f7" stroke-width="1.8"/></g>
<rect x="799" y="382" width="4" height="46" rx="2" fill="#a371f7"/>
<text x="814" y="397" fill="#e6edf3" font-size="13" font-weight="600">Gate 2: Gemini</text>
<text x="814" y="414" fill="#909dab" font-size="11">+ Google Search</text>
<text x="814" y="428" fill="#909dab" font-size="11">PASS · FIX · REJECT</text>
<circle cx="798" cy="405.0" r="3.5" fill="#444c56"/>
<circle cx="980" cy="405.0" r="3.5" fill="#444c56"/>
<g filter="url(#sh)"><rect x="1048" y="372" width="182" height="66" rx="11" fill="#2d333b" stroke="#3fb950" stroke-width="1.8"/></g>
<rect x="1049" y="382" width="4" height="46" rx="2" fill="#3fb950"/>
<text x="1064" y="397" fill="#e6edf3" font-size="13" font-weight="600">TTS service</text>
<text x="1064" y="414" fill="#909dab" font-size="11">ElevenLabs</text>
<text x="1064" y="428" fill="#909dab" font-size="11">+ word timings</text>
<circle cx="1048" cy="405.0" r="3.5" fill="#444c56"/>
<circle cx="1230" cy="405.0" r="3.5" fill="#444c56"/>
<g filter="url(#sh)"><rect x="1298" y="372" width="182" height="66" rx="11" fill="#2d333b" stroke="#3fb950" stroke-width="1.8"/></g>
<rect x="1299" y="382" width="4" height="46" rx="2" fill="#3fb950"/>
<text x="1314" y="397" fill="#e6edf3" font-size="13" font-weight="600">Video renderer</text>
<text x="1314" y="414" fill="#909dab" font-size="11">&quot;proof&quot; style: real</text>
<text x="1314" y="428" fill="#909dab" font-size="11">source page, camera</text>
<circle cx="1298" cy="405.0" r="3.5" fill="#444c56"/>
<circle cx="1480" cy="405.0" r="3.5" fill="#444c56"/>
<g filter="url(#sh)"><rect x="1548" y="372" width="182" height="66" rx="11" fill="#2d333b" stroke="#e3b341" stroke-width="1.8"/></g>
<rect x="1549" y="382" width="4" height="46" rx="2" fill="#e3b341"/>
<text x="1564" y="397" fill="#e6edf3" font-size="13" font-weight="600">Messenger</text>
<text x="1564" y="414" fill="#909dab" font-size="11">script, audio, video</text>
<text x="1564" y="428" fill="#909dab" font-size="11">+ upload metadata</text>
<circle cx="1548" cy="405.0" r="3.5" fill="#444c56"/>
<circle cx="1730" cy="405.0" r="3.5" fill="#444c56"/>
<g filter="url(#sh)"><rect x="1798" y="372" width="182" height="66" rx="11" fill="#2d333b" stroke="#8b949e" stroke-width="1.8" stroke-dasharray="5 4"/></g>
<rect x="1799" y="382" width="4" height="46" rx="2" fill="#8b949e"/>
<text x="1814" y="397" fill="#e6edf3" font-size="13" font-weight="600">Human publishes</text>
<text x="1814" y="414" fill="#909dab" font-size="11">YT Shorts · TikTok · IG</text>
<text x="1814" y="428" fill="#909dab" font-size="11">no auto-posting</text>
<circle cx="1798" cy="405.0" r="3.5" fill="#444c56"/>
<circle cx="1980" cy="405.0" r="3.5" fill="#444c56"/>
<g filter="url(#sh)"><rect x="548" y="482" width="182" height="66" rx="11" fill="#2d333b" stroke="#a371f7" stroke-width="1.8"/></g>
<rect x="549" y="492" width="4" height="46" rx="2" fill="#a371f7"/>
<text x="564" y="507" fill="#e6edf3" font-size="13" font-weight="600">Groq revises</text>
<text x="564" y="524" fill="#909dab" font-size="11">with the findings</text>
<text x="564" y="538" fill="#909dab" font-size="11">at most 2×</text>
<circle cx="548" cy="515.0" r="3.5" fill="#444c56"/>
<circle cx="730" cy="515.0" r="3.5" fill="#444c56"/>
<g filter="url(#sh)"><rect x="798" y="588" width="182" height="66" rx="11" fill="#2d333b" stroke="#e3b341" stroke-width="1.8"/></g>
<rect x="799" y="598" width="4" height="46" rx="2" fill="#e3b341"/>
<text x="814" y="613" fill="#e6edf3" font-size="13" font-weight="600">Rejected</text>
<text x="814" y="630" fill="#909dab" font-size="11">reason sent</text>
<text x="814" y="644" fill="#909dab" font-size="11">to the operator</text>
<circle cx="798" cy="621.0" r="3.5" fill="#444c56"/>
<circle cx="980" cy="621.0" r="3.5" fill="#444c56"/>
<g filter="url(#sh)"><rect x="1048" y="482" width="182" height="66" rx="11" fill="#2d333b" stroke="#3fb950" stroke-width="1.8"/></g>
<rect x="1049" y="492" width="4" height="46" rx="2" fill="#3fb950"/>
<text x="1064" y="507" fill="#e6edf3" font-size="13" font-weight="600">TTS fallback</text>
<text x="1064" y="524" fill="#909dab" font-size="11">Kokoro, local, CPU</text>
<text x="1064" y="538" fill="#909dab" font-size="11">on any provider error</text>
<circle cx="1048" cy="515.0" r="3.5" fill="#444c56"/>
<circle cx="1230" cy="515.0" r="3.5" fill="#444c56"/>
<g filter="url(#sh)"><rect x="1298" y="482" width="182" height="66" rx="11" fill="#2d333b" stroke="#3fb950" stroke-width="1.8"/></g>
<rect x="1299" y="492" width="4" height="46" rx="2" fill="#3fb950"/>
<text x="1314" y="507" fill="#e6edf3" font-size="13" font-weight="600">Stock B-roll</text>
<text x="1314" y="524" fill="#909dab" font-size="11">Pexels video clips</text>
<text x="1314" y="538" fill="#909dab" font-size="11">cut on beat boundaries</text>
<circle cx="1298" cy="515.0" r="3.5" fill="#444c56"/>
<circle cx="1480" cy="515.0" r="3.5" fill="#444c56"/>
<g filter="url(#sh)"><rect x="1548" y="482" width="182" height="66" rx="11" fill="#2d333b" stroke="#a371f7" stroke-width="1.8"/></g>
<rect x="1549" y="492" width="4" height="46" rx="2" fill="#a371f7"/>
<text x="1564" y="507" fill="#e6edf3" font-size="13" font-weight="600">Upload metadata</text>
<text x="1564" y="524" fill="#909dab" font-size="11">title, description,</text>
<text x="1564" y="538" fill="#909dab" font-size="11">hashtags</text>
<circle cx="1548" cy="515.0" r="3.5" fill="#444c56"/>
<circle cx="1730" cy="515.0" r="3.5" fill="#444c56"/>
<rect x="24" y="683" width="22" height="14" rx="4" fill="#2d333b" stroke="#f0883e" stroke-width="1.6"/>
<text x="54" y="694" fill="#adbac7" font-size="12">trigger</text>
<rect x="114.19999999999999" y="683" width="22" height="14" rx="4" fill="#2d333b" stroke="#58a6ff" stroke-width="1.6"/>
<text x="144.2" y="694" fill="#adbac7" font-size="12">deterministic code</text>
<rect x="277.0" y="683" width="22" height="14" rx="4" fill="#2d333b" stroke="#a371f7" stroke-width="1.6"/>
<text x="307.0" y="694" fill="#adbac7" font-size="12">LLM step</text>
<rect x="373.8" y="683" width="22" height="14" rx="4" fill="#2d333b" stroke="#3fb950" stroke-width="1.6"/>
<text x="403.8" y="694" fill="#adbac7" font-size="12">Docker service</text>
<rect x="510.2" y="683" width="22" height="14" rx="4" fill="#2d333b" stroke="#e3b341" stroke-width="1.6"/>
<text x="540.2" y="694" fill="#adbac7" font-size="12">notification</text>
<rect x="633.4" y="683" width="22" height="14" rx="4" fill="#2d333b" stroke="#8b949e" stroke-width="1.6" stroke-dasharray="4 3"/>
<text x="663.4" y="694" fill="#adbac7" font-size="12">human step</text>
</svg>